<svg width="8" height="6" viewBox="0 0 8 6" fill="none" xmlns="http://www.w3.org/2000/svg">
  <path
    d="M7.43967 5.39998H6.71709H5.54632H4.15604H2.72917H1.46694H0.570574C0.424228 5.39998 0.305322 5.36502 0.213856 5.29512C0.12239 5.22521 0.0598884 5.13624 0.0263509 5.0282C-0.00718665 4.92016 -0.00871102 4.801 0.0217776 4.67072C0.0522663 4.54044 0.119341 4.41175 0.223003 4.28464C0.448619 4.03043 0.686431 3.76352 0.936438 3.48389C1.18644 3.20426 1.44255 2.92146 1.70475 2.63547L2.47307 1.77752C2.73527 1.49154 2.98528 1.21509 3.22309 0.948172C3.33285 0.827424 3.46395 0.738452 3.61639 0.681255C3.76884 0.624058 3.92585 0.597049 4.08744 0.600226C4.24903 0.603404 4.40757 0.639946 4.56307 0.709853C4.71856 0.77976 4.85423 0.878266 4.97009 1.00537C5.39083 1.46294 5.82987 1.95865 6.2872 2.49248C6.74453 3.02632 7.2232 3.59828 7.72322 4.20838C7.83907 4.35455 7.91834 4.49913 7.96103 4.64212C8.00371 4.78511 8.01133 4.91222 7.98389 5.02343C7.95645 5.13465 7.89548 5.22521 7.80096 5.29512C7.70645 5.36502 7.58602 5.39998 7.43967 5.39998V5.39998Z"
    fill="#DADDE1" />
</svg>